<?xml version="1.0" standalone="no"?><!DOCTYPE svg PUBLIC "-//W3C//DTD SVG 1.1//EN" "http://www.w3.org/Graphics/SVG/1.1/DTD/svg11.dtd"><svg t="1726622897909" class="icon" viewBox="0 0 1024 1024" version="1.1" xmlns="http://www.w3.org/2000/svg" p-id="4282" xmlns:xlink="http://www.w3.org/1999/xlink" width="200" height="200"><path d="M440.533333 324.266667c-48 0-87.466667 39.466667-87.466666 87.466666s39.466667 87.466667 87.466666 87.466667 87.466667-39.466667 87.466667-87.466667-38.4-87.466667-87.466667-87.466666z m0 144c-30.933333 0-55.466667-25.6-55.466666-55.466667s24.533333-55.466667 55.466666-55.466667 55.466667 25.6 55.466667 55.466667-24.533333 55.466667-55.466667 55.466667z" fill="#777777" p-id="4283"></path><path d="M785.066667 731.733333c-9.6-2.133333-20.266667 0-27.733334 6.4L730.666667 757.333333 704 718.933333l44.8-30.933333c17.066667-11.733333 21.333333-35.2 9.6-52.266667s-35.2-21.333333-52.266667-9.6l-44.8 32-9.6-12.8c121.6-39.466667 204.8-151.466667 204.8-281.6 0-163.2-133.333333-296.533333-296.533333-296.533333-60.8 0-118.4 18.133333-168.533333 53.333333-139.733333 23.466667-247.466667 145.066667-247.466667 292.266667C144 576 277.333333 709.333333 440.533333 709.333333c6.4 0 13.866667 0 20.266667-1.066666l-48 183.466666c-7.466667 27.733333 9.6 56.533333 37.333333 64 4.266667 1.066667 8.533333 2.133333 12.8 2.133334 23.466667 0 44.8-16 51.2-39.466667l2.133334-9.6 32 8.533333c9.6 2.133333 19.2 1.066667 28.8-4.266666 8.533333-5.333333 14.933333-12.8 17.066666-22.4 2.133333-9.6 1.066667-19.2-4.266666-28.8-5.333333-8.533333-12.8-14.933333-22.4-17.066667l-32-8.533333 11.733333-44.8 52.266667 13.866666c11.733333 3.2 22.4 0 32-6.4l61.866666 87.466667c8.533333 11.733333 20.266667 19.2 34.133334 21.333333 3.2 1.066667 6.4 1.066667 9.6 1.066667 10.666667 0 21.333333-3.2 29.866666-9.6 11.733333-8.533333 19.2-20.266667 21.333334-34.133333 2.133333-13.866667-1.066667-27.733333-8.533334-39.466667l-5.333333-8.533333 26.666667-19.2c8.533333-5.333333 13.866667-13.866667 14.933333-24.533334 2.133333-9.6 0-20.266667-6.4-27.733333s-13.866667-11.733333-24.533333-13.866667zM560 99.2c146.133333 0 264.533333 118.4 264.533333 264.533333 0 107.733333-64 201.6-160 243.2 2.133333-2.133333 4.266667-5.333333 6.4-8.533333l2.133334-2.133333c3.2-3.2 5.333333-7.466667 8.533333-11.733334 1.066667-1.066667 2.133333-2.133333 3.2-4.266666 2.133333-2.133333 3.2-5.333333 5.333333-7.466667 1.066667-1.066667 2.133333-3.2 3.2-4.266667 1.066667-2.133333 3.2-5.333333 4.266667-7.466666 1.066667-2.133333 2.133333-3.2 3.2-5.333334 1.066667-2.133333 3.2-5.333333 4.266667-7.466666 1.066667-2.133333 2.133333-3.2 2.133333-5.333334 1.066667-2.133333 2.133333-5.333333 4.266667-7.466666 1.066667-2.133333 1.066667-3.2 2.133333-5.333334 1.066667-3.2 2.133333-6.4 4.266667-9.6 0-1.066667 1.066667-2.133333 1.066666-4.266666 2.133333-4.266667 3.2-8.533333 4.266667-13.866667 0-1.066667 1.066667-2.133333 1.066667-3.2 1.066667-3.2 2.133333-6.4 3.2-10.666667 0-2.133333 1.066667-3.2 1.066666-5.333333 1.066667-3.2 1.066667-6.4 2.133334-8.533333 0-2.133333 1.066667-3.2 1.066666-5.333334 1.066667-3.2 1.066667-5.333333 1.066667-8.533333 0-2.133333 1.066667-4.266667 1.066667-5.333333 0-3.2 1.066667-6.4 1.066666-8.533334 0-2.133333 0-3.2 1.066667-5.333333 0-3.2 1.066667-6.4 1.066667-9.6v-4.266667-14.933333-14.933333-5.333334c0-3.2 0-6.4-1.066667-9.6 0-2.133333 0-4.266667-1.066667-5.333333 0-3.2-1.066667-5.333333-1.066666-8.533333 0-2.133333-1.066667-4.266667-1.066667-6.4 0-3.2-1.066667-5.333333-1.066667-8.533334 0-2.133333-1.066667-4.266667-1.066666-6.4-1.066667-2.133333-1.066667-5.333333-2.133334-7.466666 0-2.133333-1.066667-4.266667-2.133333-6.4-1.066667-3.2-1.066667-5.333333-2.133333-7.466667-1.066667-2.133333-1.066667-4.266667-2.133334-6.4-1.066667-2.133333-2.133333-5.333333-2.133333-7.466667-1.066667-2.133333-1.066667-4.266667-2.133333-6.4-1.066667-2.133333-2.133333-4.266667-3.2-7.466666-1.066667-2.133333-2.133333-4.266667-2.133334-6.4l-3.2-6.4c-1.066667-2.133333-2.133333-4.266667-3.2-5.333334l-3.2-6.4c-1.066667-2.133333-2.133333-4.266667-3.2-5.333333-1.066667-2.133333-2.133333-4.266667-4.266666-6.4-1.066667-2.133333-2.133333-3.2-3.2-5.333333-1.066667-2.133333-3.2-4.266667-4.266667-6.4-1.066667-2.133333-2.133333-3.2-3.2-5.333334-1.066667-2.133333-3.2-4.266667-4.266667-6.4-1.066667-2.133333-2.133333-3.2-4.266666-5.333333-1.066667-2.133333-3.2-4.266667-4.266667-6.4-1.066667-2.133333-2.133333-3.2-4.266667-5.333333s-3.2-4.266667-5.333333-5.333334l-4.266667-4.266666c-2.133333-2.133333-3.2-4.266667-5.333333-5.333334l-4.266667-4.266666c-2.133333-2.133333-4.266667-4.266667-6.4-5.333334-1.066667-1.066667-3.2-2.133333-4.266666-4.266666-2.133333-2.133333-4.266667-4.266667-6.4-5.333334-1.066667-1.066667-2.133333-2.133333-4.266667-3.2-3.2-2.133333-6.4-5.333333-9.6-7.466666l-1.066667-1.066667c-3.2-3.2-7.466667-5.333333-11.733333-8.533333-1.066667-1.066667-2.133333-2.133333-4.266667-2.133334-2.133333-2.133333-5.333333-3.2-7.466666-5.333333-1.066667-1.066667-3.2-2.133333-4.266667-3.2-2.133333-1.066667-5.333333-3.2-7.466667-4.266667-2.133333-1.066667-3.2-2.133333-5.333333-3.2-2.133333-1.066667-4.266667-2.133333-7.466667-3.2-2.133333-1.066667-3.2-2.133333-5.333333-2.133333-2.133333-1.066667-4.266667-2.133333-7.466667-3.2-2.133333-1.066667-4.266667-2.133333-5.333333-2.133333-2.133333-1.066667-5.333333-2.133333-7.466667-3.2-2.133333-1.066667-4.266667-1.066667-6.4-2.133334-2.133333-1.066667-5.333333-2.133333-7.466666-2.133333-2.133333-1.066667-4.266667-1.066667-6.4-2.133333-2.133333-1.066667-5.333333-1.066667-7.466667-2.133334-2.133333-1.066667-4.266667-1.066667-6.4-2.133333-2.133333-1.066667-5.333333-1.066667-7.466667-2.133333-2.133333 0-4.266667-1.066667-6.4-1.066667-2.133333 0-5.333333-1.066667-7.466666-1.066667-2.133333 0-4.266667-1.066667-6.4-1.066666-2.133333 0-5.333333-1.066667-7.466667-1.066667-2.133333 0-4.266667 0-6.4-1.066667h-3.2c30.933333-12.8 62.933333-18.133333 96-18.133333zM608 774.4l-68.266667-18.133333c-8.533333-2.133333-17.066667 3.2-19.2 11.733333L501.333333 843.733333c-1.066667 4.266667 0 8.533333 2.133334 11.733334 2.133333 3.2 5.333333 6.4 9.6 7.466666l46.933333 12.8c3.2 1.066667 4.266667 3.2 4.266667 6.4 0 2.133333-2.133333 3.2-2.133334 3.2-1.066667 0-2.133333 1.066667-4.266666 1.066667l-46.933334-12.8c-4.266667-1.066667-8.533333 0-11.733333 2.133333-3.2 2.133333-6.4 5.333333-7.466667 9.6l-6.4 24.533334a21.333333 21.333333 0 0 1-24.533333 14.933333c-5.333333-1.066667-9.6-4.266667-12.8-9.6-3.2-4.266667-3.2-10.666667-2.133333-16l51.2-196.266667c14.933333-3.2 30.933333-7.466667 45.866666-12.8L533.333333 725.333333c-2.133333 8.533333 3.2 17.066667 11.733334 19.2l64 17.066667 7.466666 9.6c-4.266667 3.2-6.4 3.2-8.533333 3.2z m-29.866667-52.266667l-11.733333-3.2 2.133333-9.6 9.6 12.8z m205.866667 46.933334c0 1.066667-1.066667 2.133333-2.133333 3.2L741.333333 800c-3.2 2.133333-5.333333 6.4-6.4 10.666667-1.066667 4.266667 0 8.533333 2.133334 11.733333l14.933333 21.333333c6.4 9.6 4.266667 22.4-5.333333 28.8-4.266667 3.2-9.6 4.266667-14.933334 3.2-5.333333-1.066667-9.6-4.266667-12.8-8.533333l-75.733333-107.733333-13.866667-20.266667-57.6-82.133333-3.2-3.2s-1.066667 0-1.066666-1.066667c-1.066667-1.066667-2.133333-1.066667-4.266667-2.133333h-1.066667c-1.066667 0-2.133333-1.066667-4.266666-1.066667h-1.066667-1.066667c-2.133333 0-3.2 1.066667-5.333333 1.066667l-16 6.4c-1.066667 0-2.133333 1.066667-3.2 1.066666-5.333333 2.133333-9.6 3.2-14.933333 5.333334h-1.066667c-11.733333 3.2-23.466667 6.4-36.266667 8.533333-12.8 2.133333-25.6 3.2-39.466666 3.2-146.133333 0-264.533333-118.4-264.533334-264.533333 0-132.266667 97.066667-241.066667 224-261.333334 6.4-1.066667 11.733333-1.066667 18.133334-2.133333h4.266666c6.4 0 11.733333-1.066667 18.133334-1.066667C586.666667 148.266667 705.066667 266.666667 705.066667 411.733333c0 78.933333-34.133333 152.533333-94.933334 202.666667-6.4 5.333333-7.466667 14.933333-3.2 21.333333l5.333334 8.533334 30.933333 44.8c5.333333 7.466667 14.933333 8.533333 22.4 4.266666l57.6-40.533333c2.133333-2.133333 5.333333-1.066667 7.466667 1.066667 2.133333 2.133333 1.066667 5.333333-1.066667 7.466666L672 701.866667c-7.466667 5.333333-8.533333 14.933333-4.266667 22.4l44.8 64c2.133333 3.2 6.4 5.333333 10.666667 6.4 4.266667 1.066667 8.533333 0 11.733333-2.133334l40.533334-27.733333c1.066667-1.066667 3.2-1.066667 4.266666-1.066667 1.066667 0 2.133333 1.066667 3.2 2.133334 1.066667 1.066667 1.066667 3.2 1.066667 3.2z" fill="#777777" p-id="4284"></path><path d="M781.866667 375.466667c-8.533333 0-16-7.466667-16-16 0-54.4-21.333333-105.6-59.733334-144-6.4-6.4-6.4-16 0-22.4 6.4-6.4 16-6.4 22.4 0 44.8 44.8 69.333333 103.466667 69.333334 166.4 0 8.533333-7.466667 16-16 16z" fill="#777777" p-id="4285"></path></svg>