<?xml version="1.0" standalone="no"?><!DOCTYPE svg PUBLIC "-//W3C//DTD SVG 1.1//EN" "http://www.w3.org/Graphics/SVG/1.1/DTD/svg11.dtd"><svg t="1708760345414" class="icon" viewBox="0 0 1024 1024" version="1.1" xmlns="http://www.w3.org/2000/svg" p-id="4263" width="48" height="48" xmlns:xlink="http://www.w3.org/1999/xlink"><path d="M863.9488 989.866667H160.0512A126.020267 126.020267 0 0 1 34.133333 863.9488V160.0512A126.020267 126.020267 0 0 1 160.0512 34.133333h703.8976A126.020267 126.020267 0 0 1 989.866667 160.0512v703.8976A126.020267 126.020267 0 0 1 863.9488 989.866667zM160.0512 74.786133a85.333333 85.333333 0 0 0-85.230933 85.230934V863.914667a85.333333 85.333333 0 0 0 85.230933 85.265066h703.8976a85.367467 85.367467 0 0 0 85.265067-85.265066V160.0512a85.333333 85.333333 0 0 0-85.265067-85.230933H160.0512v-0.034134z" p-id="4264" fill="#d81e06"></path><path d="M607.061333 488.891733v44.1344H709.973333v44.100267h-102.912v48.810667h137.591467v44.1344h-137.591467V750.933333h-48.8448v-80.861866h-129.194666v-11.5712c-57.412267 46.216533-88.746667 73.3184-94.0032 81.408-8.055467-15.0528-16.9984-26.965333-26.794667-35.703467 17.5104-13.994667 26.248533-32.221867 26.248533-54.613333v-175.9232H266.752v-48.3328h116.053333v213.1968l37.2736-28.8768 8.942934 22.050133v-5.802667h129.194666v-48.810666h-100.283733v-44.100267h100.283733v-44.1344h48.8448zM328.738133 273.066667c30.446933 36.420267 51.473067 66.3552 63.010134 89.8048l-40.96 28.8768c-10.171733-23.790933-29.934933-55.296-59.357867-94.5152L328.738133 273.066667z m356.5568 15.223466l8.3968-2.628266 32.0512 17.851733c-21.333333 44.100267-54.101333 83.319467-98.2016 117.623467a452.573867 452.573867 0 0 0 129.706667 45.704533c-11.229867 10.8544-21.538133 24.849067-30.993067 42.018133-51.780267-12.5952-98.372267-32.3584-139.6736-59.357866-44.817067 28.023467-96.290133 50.244267-154.385066 66.696533a151.9616 151.9616 0 0 0-26.248534-42.530133c52.155733-12.253867 99.054933-30.1056 140.731734-53.589334a362.2912 362.2912 0 0 1-74.581334-88.746666h-38.331733V288.290133h251.528533z m-164.352 43.076267a297.984 297.984 0 0 0 65.1264 64.068267c27.613867-19.592533 50.210133-40.96 67.720534-64.068267h-132.846934z" p-id="4265" fill="#d81e06"></path></svg>